<?xml version="1.0" encoding="utf-8"?>
<!-- Generator: Adobe Illustrator 17.0.0, SVG Export Plug-In . SVG Version: 6.00 Build 0)  -->
<!DOCTYPE svg PUBLIC "-//W3C//DTD SVG 1.1//EN" "http://www.w3.org/Graphics/SVG/1.1/DTD/svg11.dtd">
<svg version="1.1" id="Capa_1" xmlns="http://www.w3.org/2000/svg" xmlns:xlink="http://www.w3.org/1999/xlink" x="0px" y="0px"
	 width="362.982px" height="400.48px" viewBox="0 0 362.982 400.48" enable-background="new 0 0 362.982 400.48"
	 xml:space="preserve">
<g>
	<path fill="#2CB1E5" d="M46.4,171.708c0-72.567,59.526-131.685,133-132.481V16.445C92.396,14.119,29.299,91.506,24.05,155.646
		C14.625,223.74,63.379,278.5,104.275,316.958c88.724,75.779,65.309,67.683,75.125,67.267v-80.036
		C105.927,303.393,46.4,244.274,46.4,171.708z"/>
	<path fill="#FFFFFF" d="M51.4,171.708c0,69.81,57.283,126.686,128,127.481V147.897c-7.991,0-16,0-24,0c0,6,0,12.533,0,18.895
		c8-1.757,12.213,6.25,10.025,14.105c-19.987,0-40.025,0-60.025,0c0-2.774,0-5.548,0-8.322c0-0.42,0.737-0.816,0.949-1.263
		c1.579-3.336,7.051-5.182,10.051-4.477c0-0.749,0-1.47,0-2.191c0-10.561-0.175-21.122-0.189-31.683
		c-0.005-3.493,0.932-6.596,2.842-9.545c3.019-4.661,7.426-6.448,12.649-6.571c7.785-0.182,15.53,0.05,23.319,0.05
		c0.699,0,1.379,0,2.379,0c0-4,0-6.675,0-8.838c2-5.981,7.109-7.461,12.696-6.634c0-3.911-0.095-7.734-0.084-11.557
		c0.01-3.539,1.342-6.243,4.653-7.846c0.531-0.257,1.146-0.971,1.167-1.497c0.114-2.953,0.044-5.913,0.044-8.859
		c-1.148,0.239-2.147,0.622-3.143,0.627c-9.175,0.046-18.353,0.059-27.527-0.017c-1.019-0.009-2.132-0.472-3.028-1.012
		c-1.245-0.75-1.556-1.982-1.64-3.506c-0.253-4.555,0.826-6.313,6.285-6.187c8.378,0.194,16.764,0.036,25.147,0.067
		c1.27,0.005,2.538,0.444,3.952,0.582c-0.431-2.082,0.1-4.322,1.928-5.322c0.517,0,1.034,0,1.551,0V44.227
		C108.684,45.022,51.4,101.898,51.4,171.708z"/>
	<path fill="#3B48F2" d="M46.4,171.708c0,72.567,59.526,131.685,133,132.481v-2.5c-72.209-0.793-130.5-58.678-130.5-129.981
		S107.191,42.52,179.4,41.727v-2.5C105.927,40.023,46.4,99.141,46.4,171.708z"/>
	<path fill="#3B48F2" d="M51.4,171.708c0-69.81,57.283-126.686,128-127.481v-2.5C107.191,42.52,48.9,100.405,48.9,171.708
		s58.291,129.188,130.5,129.981v-2.5C108.684,298.393,51.4,241.518,51.4,171.708z"/>
	<path fill="#B1B1B1" d="M177.85,56.897c-1.828,1-2.358,3.24-1.928,5.322c-1.414-0.137-2.682-0.47-3.952-0.475
		c-8.383-0.032-16.769,0.073-25.147-0.121c-5.459-0.126-6.538,1.606-6.285,6.16c0.085,1.524,0.394,2.743,1.64,3.493
		c0.896,0.54,2.007,0.997,3.027,1.005c9.174,0.076,18.35,0.06,27.524,0.014c0.996-0.005,1.99-0.389,3.138-0.628
		c0,2.946,0.059,5.905-0.055,8.858c-0.02,0.525-0.657,1.239-1.188,1.496c-3.311,1.604-4.686,4.307-4.696,7.846
		c-0.011,3.823,0.17,7.646,0.17,11.557c-5.588-0.827-10.696,0.653-12.696,6.634c0,2.163,0,4.838,0,8.838c-1,0-1.68,0-2.379,0
		c-7.789,0-15.581-0.233-23.365-0.05c-5.224,0.122-9.677,1.959-12.695,6.619c-1.91,2.949-2.754,6.027-2.75,9.52
		c0.014,10.561,0.189,21.098,0.189,31.659c0,0.721,0,1.442,0,2.191c-3-0.705-8.472,1.141-10.051,4.477
		c-0.211,0.447-0.949,0.843-0.949,1.263c0,2.774,0,5.548,0,8.322c20,0,40.038,0,60.025,0c2.189-7.855-2.025-15.861-10.025-14.105
		c0-6.363,0-12.895,0-18.895c8,0,16.009,0,24,0v-91C178.884,56.897,178.367,56.897,177.85,56.897z"/>
	<path fill="#259BD6" d="M256.025,316.958c40.896-38.458,89.65-93.218,80.225-161.312c-5.264-64.324-68.706-141.982-156.1-139.188
		c-0.251-0.008-0.499-0.007-0.75-0.013v22.782c0.5-0.005,0.998-0.019,1.5-0.019c74.164,0,134.5,59.439,134.5,132.5
		s-60.336,132.5-134.5,132.5c-0.501,0-1-0.013-1.5-0.019v80.036c0.233-0.01,0.478-0.017,0.75-0.017
		C192.4,384.208,165.197,394.534,256.025,316.958z"/>
	<path opacity="0.1" d="M256.025,316.958c40.896-38.458,89.65-93.218,80.225-161.312c-5.264-64.324-68.706-141.982-156.1-139.188
		c-0.251-0.008-0.499-0.007-0.75-0.013v22.782c0.5-0.005,0.998-0.019,1.5-0.019c74.164,0,134.5,59.439,134.5,132.5
		s-60.336,132.5-134.5,132.5c-0.501,0-1-0.013-1.5-0.019v80.036c0.233-0.01,0.478-0.017,0.75-0.017
		C192.4,384.208,165.197,394.534,256.025,316.958z"/>
	<path fill="#FFFFFF" d="M181.812,56.897c0.809,0,1.745,0.986,2.479,1.687c0.197,0.188,0.109,0.544,0.109,0.939
		c0,0.854,0,1.707,0,2.516c1-0.143,1.614-0.398,2.447-0.4c9.376-0.028,18.712-0.021,28.088-0.016
		c2.795,0.002,4.406,1.56,4.542,4.324c0.057,1.155,0.108,2.31,0.172,3.543c-0.109,0.057-0.546,0.132-0.673,0.37
		c-0.973,1.824-2.534,2.47-4.511,2.466c-8.782-0.016-17.565,0.008-26.347-0.023c-1.28-0.004-2.56-0.226-3.928-0.356
		c0,2.647-0.053,5.485,0.046,8.317c0.019,0.535,0.535,1.192,1.006,1.55c2.634,2,4.766,4.131,4.545,7.89
		c-0.228,3.876-0.051,7.776-0.051,11.671c3.998-0.329,7.723-0.211,10.741,2.84c1.713,1.731,2.139,4.046,2.304,6.271
		c0.15,2.027,0.032,3.411,0.032,6.411c13.477,0,26.836,0,40.419,0c0-3-0.048-5.693,0.011-8.443
		c0.087-4.067,0.198-8.217,0.404-12.279c0.095-1.868,3.817-5.766,5.651-5.943c3.241-0.312,6.1-0.456,10.1-0.654
		c0,29.01,0,57.69,0,86.613c-4-0.415-7.922,0.708-11.647-1.167c-2.36-1.188-4.32-3.473-4.325-6.084
		c-0.01-6.339-0.028-12.678-0.028-19.017c0-0.708,0-1.026,0-2.026c-22,0-42.738,0-64,0v151.292c0.5,0.006,0.998,0.019,1.5,0.019
		c71.407,0,129.5-57.196,129.5-127.5s-58.093-127.5-129.5-127.5c-0.501,0-1,0.013-1.5,0.019v12.671
		C180.204,56.897,181.008,56.897,181.812,56.897z"/>
	<path opacity="0.1" d="M181.812,56.897c0.809,0,1.745,0.986,2.479,1.687c0.197,0.188,0.109,0.544,0.109,0.939
		c0,0.854,0,1.707,0,2.516c1-0.143,1.614-0.398,2.447-0.4c9.376-0.028,18.712-0.021,28.088-0.016
		c2.795,0.002,4.406,1.56,4.542,4.324c0.057,1.155,0.108,2.31,0.172,3.543c-0.109,0.057-0.546,0.132-0.673,0.37
		c-0.973,1.824-2.534,2.47-4.511,2.466c-8.782-0.016-17.565,0.008-26.347-0.023c-1.28-0.004-2.56-0.226-3.928-0.356
		c0,2.647-0.053,5.485,0.046,8.317c0.019,0.535,0.535,1.192,1.006,1.55c2.634,2,4.766,4.131,4.545,7.89
		c-0.228,3.876-0.051,7.776-0.051,11.671c3.998-0.329,7.723-0.211,10.741,2.84c1.713,1.731,2.139,4.046,2.304,6.271
		c0.15,2.027,0.032,3.411,0.032,6.411c13.477,0,26.836,0,40.419,0c0-3-0.048-5.693,0.011-8.443
		c0.087-4.067,0.198-8.217,0.404-12.279c0.095-1.868,3.817-5.766,5.651-5.943c3.241-0.312,6.1-0.456,10.1-0.654
		c0,29.01,0,57.69,0,86.613c-4-0.415-7.922,0.708-11.647-1.167c-2.36-1.188-4.32-3.473-4.325-6.084
		c-0.01-6.339-0.028-12.678-0.028-19.017c0-0.708,0-1.026,0-2.026c-22,0-42.738,0-64,0v151.292c0.5,0.006,0.998,0.019,1.5,0.019
		c71.407,0,129.5-57.196,129.5-127.5s-58.093-127.5-129.5-127.5c-0.501,0-1,0.013-1.5,0.019v12.671
		C180.204,56.897,181.008,56.897,181.812,56.897z"/>
	<path fill="#3B48F2" d="M180.9,41.708c72.902,0,132,58.203,132,130s-59.098,130-132,130c-0.501,0-1-0.013-1.5-0.019v2.5
		c0.5,0.005,0.998,0.019,1.5,0.019c74.164,0,134.5-59.439,134.5-132.5s-60.336-132.5-134.5-132.5c-0.501,0-1,0.013-1.5,0.019v2.5
		C179.901,41.721,180.399,41.708,180.9,41.708z"/>
	<path opacity="0.1" d="M180.9,41.708c72.902,0,132,58.203,132,130s-59.098,130-132,130c-0.501,0-1-0.013-1.5-0.019v2.5
		c0.5,0.005,0.998,0.019,1.5,0.019c74.164,0,134.5-59.439,134.5-132.5s-60.336-132.5-134.5-132.5c-0.501,0-1,0.013-1.5,0.019v2.5
		C179.901,41.721,180.399,41.708,180.9,41.708z"/>
	<path fill="#3B48F2" d="M312.9,171.708c0-71.797-59.098-130-132-130c-0.501,0-1,0.013-1.5,0.019v2.5
		c0.5-0.006,0.998-0.019,1.5-0.019c71.407,0,129.5,57.196,129.5,127.5s-58.093,127.5-129.5,127.5c-0.501,0-1-0.013-1.5-0.019v2.5
		c0.5,0.005,0.998,0.019,1.5,0.019C253.802,301.708,312.9,243.505,312.9,171.708z"/>
	<path opacity="0.1" d="M312.9,171.708c0-71.797-59.098-130-132-130c-0.501,0-1,0.013-1.5,0.019v2.5
		c0.5-0.006,0.998-0.019,1.5-0.019c71.407,0,129.5,57.196,129.5,127.5s-58.093,127.5-129.5,127.5c-0.501,0-1-0.013-1.5-0.019v2.5
		c0.5,0.005,0.998,0.019,1.5,0.019C253.802,301.708,312.9,243.505,312.9,171.708z"/>
	<path fill="#B1B1B1" d="M243.4,149.923c0,6.339-0.09,12.678-0.08,19.017c0.004,2.611,2.115,4.895,4.474,6.084
		c3.725,1.876,7.606,0.752,11.606,1.167c0-28.923,0-57.602,0-86.613c-4,0.198-6.859,0.301-10.1,0.613
		c-1.834,0.177-5.448,4.034-5.543,5.901c-0.206,4.062-0.371,8.294-0.458,12.361c-0.059,2.75-0.065,5.443-0.065,8.443
		c-13.583,0-26.942,0-40.419,0c0-3,0.118-4.384-0.032-6.411c-0.165-2.225-0.591-4.457-2.304-6.189
		c-3.018-3.051-6.744-3.21-10.741-2.881c0-3.894-0.177-7.815,0.051-11.691c0.221-3.759-1.911-5.899-4.545-7.9
		c-0.471-0.358-0.987-1.02-1.006-1.555c-0.1-2.832-0.047-5.673-0.047-8.32c1.368,0.13,2.647,0.35,3.927,0.354
		c8.782,0.031,17.564,0.007,26.346,0.022c1.977,0.004,3.535-0.642,4.508-2.467c0.127-0.238,0.558-0.314,0.668-0.37
		c-0.064-1.233-0.125-2.388-0.182-3.543c-0.137-2.765-1.768-4.323-4.563-4.325c-9.376-0.005-18.671-0.012-28.047,0.016
		c-0.834,0.003-1.447,0.258-2.447,0.4c0-0.808,0-1.662,0-2.516c0-0.395,0.088-0.751-0.109-0.939
		c-0.734-0.702-1.67-1.687-2.479-1.687c-0.804,0-1.608,0-2.412,0v91c21.262,0,42,0,64,0C243.4,148.897,243.4,149.216,243.4,149.923z
		"/>
	<path opacity="0.1" d="M243.4,149.923c0,6.339-0.09,12.678-0.08,19.017c0.004,2.611,2.115,4.895,4.474,6.084
		c3.725,1.876,7.606,0.752,11.606,1.167c0-28.923,0-57.602,0-86.613c-4,0.198-6.859,0.301-10.1,0.613
		c-1.834,0.177-5.448,4.034-5.543,5.901c-0.206,4.062-0.371,8.294-0.458,12.361c-0.059,2.75-0.065,5.443-0.065,8.443
		c-13.583,0-26.942,0-40.419,0c0-3,0.118-4.384-0.032-6.411c-0.165-2.225-0.591-4.457-2.304-6.189
		c-3.018-3.051-6.744-3.21-10.741-2.881c0-3.894-0.177-7.815,0.051-11.691c0.221-3.759-1.911-5.899-4.545-7.9
		c-0.471-0.358-0.987-1.02-1.006-1.555c-0.1-2.832-0.047-5.673-0.047-8.32c1.368,0.13,2.647,0.35,3.927,0.354
		c8.782,0.031,17.564,0.007,26.346,0.022c1.977,0.004,3.535-0.642,4.508-2.467c0.127-0.238,0.558-0.314,0.668-0.37
		c-0.064-1.233-0.125-2.388-0.182-3.543c-0.137-2.765-1.768-4.323-4.563-4.325c-9.376-0.005-18.671-0.012-28.047,0.016
		c-0.834,0.003-1.447,0.258-2.447,0.4c0-0.808,0-1.662,0-2.516c0-0.395,0.088-0.751-0.109-0.939
		c-0.734-0.702-1.67-1.687-2.479-1.687c-0.804,0-1.608,0-2.412,0v91c21.262,0,42,0,64,0C243.4,148.897,243.4,149.216,243.4,149.923z
		"/>
</g>
<g>
	<g>
		<path fill="#2CB1E5" d="M146.819,211.084c6.825,6.301,14.96,15.274,13.387,26.431c-0.878,10.539-11.465,23.264-26.048,22.806
			c-14.583,0.458-25.17-12.266-26.048-22.806c-1.573-11.157,6.563-20.129,13.387-26.431c15.156-12.711,10.903-21.687,11.909-17.268
			C134.237,197.467,131.662,198.373,146.819,211.084z"/>
	</g>
	<path opacity="0.8" fill="#F2F2F2" stroke="#F2F2F2" stroke-width="5" stroke-miterlimit="10" d="M114.883,235.702
		c0,7.493,3.719,13.556,8.315,13.556"/>
	<path opacity="0.8" fill="#F2F2F2" stroke="#F2F2F2" stroke-miterlimit="10" d="M125.837,210.695
		c-7.067,4.711-10.447,10.907-7.557,13.854"/>
</g>
</svg>
